<svg width="162" height="26" viewBox="0 0 162 26" fill="none" xmlns="http://www.w3.org/2000/svg">
<path d="M0.71 11.0469C0.71 9.27344 0.971719 7.69531 1.49516 6.3125C2.02641 4.92188 2.85453 3.82422 3.97953 3.01953C5.10453 2.21484 6.52641 1.8125 8.24516 1.8125C9.41703 1.8125 10.6553 1.96484 11.96 2.26953C12.3819 2.51953 12.7491 2.78125 13.0616 3.05469C13.3819 3.32031 13.6866 3.64453 13.9756 4.02734C13.9756 4.58203 13.9014 5.32031 13.753 6.24219C13.6045 7.15625 13.417 8.01172 13.1905 8.80859C12.9717 9.59766 12.7608 10.1094 12.5577 10.3438C12.3545 10.4453 12.1827 10.5156 12.042 10.5547C11.9014 10.5859 11.6827 10.6016 11.3858 10.6016C11.0186 10.6016 10.6748 10.5742 10.3545 10.5195C10.0342 10.4648 9.79203 10.3906 9.62797 10.2969L9.21781 6.34766C8.66313 6.19141 7.89359 6.11328 6.90922 6.11328C6.64359 6.11328 6.44828 6.11719 6.32328 6.125C5.98734 7.20312 5.79984 8.65234 5.76078 10.4727C5.75297 10.6914 5.74906 11.0234 5.74906 11.4688C5.74906 12.5156 5.80375 13.3633 5.91313 14.0117C6.01469 14.6211 6.12406 15.0781 6.24125 15.3828C6.35844 15.6875 6.56156 15.9219 6.85063 16.0859C7.1475 16.25 7.58891 16.332 8.17484 16.332C8.96391 16.332 9.69047 16.2188 10.3545 15.9922C11.0264 15.7578 11.7569 15.418 12.5459 14.9727C12.8428 15.293 13.0694 15.5547 13.2256 15.7578C13.3897 15.9609 13.5381 16.2109 13.6709 16.5078C13.8116 16.8047 13.9053 17.1445 13.9522 17.5273C13.8272 17.7852 13.4952 18.1289 12.9561 18.5586C12.417 18.9883 11.71 19.375 10.835 19.7188C9.96 20.0625 8.97953 20.2344 7.89359 20.2344C5.35453 20.2344 3.5225 19.4414 2.3975 17.8555C1.2725 16.2695 0.71 14 0.71 11.0469ZM15.3658 13.0742C15.3658 11.6602 15.5923 10.4336 16.0455 9.39453C16.4986 8.35547 17.1939 7.55078 18.1314 6.98047C19.0689 6.40234 20.2447 6.11328 21.6588 6.11328C23.2213 6.11328 24.4478 6.40625 25.3384 6.99219C26.2291 7.57031 26.8502 8.375 27.2017 9.40625C27.5611 10.4375 27.7408 11.6992 27.7408 13.1914C27.7408 14.543 27.5025 15.75 27.0259 16.8125C26.5572 17.8672 25.8463 18.7031 24.8931 19.3203C23.9478 19.9297 22.7877 20.2344 21.4127 20.2344C19.2877 20.2344 17.7486 19.582 16.7955 18.2773C15.8423 16.9648 15.3658 15.2305 15.3658 13.0742ZM21.8931 16.8008C22.2916 16.8008 22.5338 16.7695 22.6197 16.707C22.7994 16.3945 22.9361 15.9531 23.0298 15.3828C23.1236 14.8125 23.1705 14.1953 23.1705 13.5312C23.1705 12.9219 23.1314 12.3516 23.0533 11.8203C22.9752 11.2812 22.8658 10.8594 22.7252 10.5547C22.6392 10.4531 22.4673 10.3789 22.2095 10.332C21.9517 10.2773 21.6705 10.25 21.3658 10.25C20.9673 10.25 20.6939 10.293 20.5455 10.3789C20.1548 11.0508 19.9595 11.9844 19.9595 13.1797C19.9595 13.7422 20.0025 14.3164 20.0884 14.9023C20.1744 15.4883 20.2838 16.0195 20.4166 16.4961C20.5103 16.5977 20.7017 16.6758 20.9908 16.7305C21.2798 16.7773 21.5806 16.8008 21.8931 16.8008ZM29.4356 9.89844C29.3028 9.32812 29.2169 8.91016 29.1778 8.64453C29.1387 8.37891 29.1192 7.97656 29.1192 7.4375C29.5802 7 30.0762 6.67188 30.6075 6.45312C31.1387 6.22656 31.7364 6.11328 32.4005 6.11328C34.4161 6.11328 35.4239 7.125 35.4239 9.14844C35.4239 9.6875 35.3731 10.3125 35.2716 11.0234C35.1778 11.7344 35.0411 12.6289 34.8614 13.707C34.838 13.8477 34.7755 14.2266 34.6739 14.8438C34.5723 15.4609 34.502 15.9766 34.463 16.3906C34.5958 16.5312 34.7598 16.6289 34.9552 16.6836C35.0489 16.6836 35.2637 16.4922 35.5997 16.1094C35.9434 15.7188 36.3106 15.2461 36.7012 14.6914C37.0919 14.1367 37.4122 13.625 37.6622 13.1562C37.7247 12.0391 37.8106 11.0117 37.92 10.0742L36.6895 9.82812C36.588 9.4375 36.5177 9.09375 36.4786 8.79688C36.4395 8.5 36.42 8.18359 36.42 7.84766L36.4317 7.51953C36.713 7.16016 37.1348 6.83594 37.6973 6.54688C38.2598 6.25781 38.9044 6.11328 39.6309 6.11328C41.6466 6.11328 42.6544 7.125 42.6544 9.14844C42.6544 9.96875 42.5177 11.0508 42.2442 12.3945C41.9708 13.7305 41.6505 15.082 41.2833 16.4492L42.6309 15.8633C42.8575 16.1055 43.0567 16.4023 43.2286 16.7539C43.4083 17.0977 43.5216 17.4961 43.5684 17.9492C43.4591 18.1836 43.2208 18.4844 42.8536 18.8516C42.4864 19.2109 42.0372 19.5312 41.5059 19.8125C40.9747 20.0938 40.42 20.2344 39.8419 20.2344C39.1934 20.2344 38.6934 20.043 38.3419 19.6602C37.9981 19.2695 37.8262 18.7734 37.8262 18.1719C37.8262 18.0156 37.8653 17.6953 37.9434 17.2109C38.0294 16.7266 38.0997 16.3906 38.1544 16.2031L37.8262 16.0977C37.4356 17.4648 36.8966 18.4961 36.2091 19.1914C35.5294 19.8867 34.752 20.2344 33.877 20.2344C32.6192 20.2344 31.7325 19.8203 31.2169 18.9922C30.7012 18.1562 30.4434 17.1211 30.4434 15.8867C30.4434 13.5664 30.5216 11.6289 30.6778 10.0742L29.4356 9.89844ZM44.5602 9.94531C44.3961 9.4375 44.2867 8.98438 44.232 8.58594C44.1852 8.1875 44.1617 7.67188 44.1617 7.03906C44.2867 6.92969 44.4898 6.80469 44.7711 6.66406C45.0523 6.51562 45.3883 6.38672 45.7789 6.27734C46.1695 6.16797 46.5719 6.11328 46.9859 6.11328C47.9313 6.11328 48.5992 6.31641 48.9898 6.72266C49.3883 7.12891 49.5875 7.73828 49.5875 8.55078C49.5875 9.00391 49.5211 9.61719 49.3883 10.3906C49.1695 11.6328 49.0602 12.2852 49.0602 12.3477C49.0602 12.3867 49.0875 12.4258 49.1422 12.4648C49.1969 12.4961 49.2555 12.5117 49.318 12.5117C49.3883 12.5117 49.4352 12.4844 49.4586 12.4297L49.5758 11.9609L49.8336 10.9648C50.2164 9.51953 50.7867 8.35156 51.5445 7.46094C52.3023 6.5625 53.2555 6.11328 54.4039 6.11328C55.2633 6.11328 55.9625 6.30078 56.5016 6.67578C57.0484 7.04297 57.443 7.53125 57.6852 8.14062C57.9273 8.74219 58.0484 9.40625 58.0484 10.1328C58.0484 11.1172 57.9547 12.2227 57.7672 13.4492C57.5797 14.668 57.3297 15.8086 57.0172 16.8711C56.7125 17.9102 56.2047 18.7344 55.4938 19.3438C54.7906 19.9453 53.9117 20.2461 52.857 20.2461C52.4742 20.2461 52.025 20.1836 51.5094 20.0586C51.0016 19.9414 50.357 19.7344 49.5758 19.4375L49.107 21.6523L49.1305 21.6758L51.3688 21.5234C51.5172 21.7344 51.6266 21.9883 51.6969 22.2852C51.775 22.5898 51.8414 22.9375 51.8961 23.3281L51.9313 23.5625C51.9313 23.5938 51.7594 23.7383 51.4156 23.9961C51.0719 24.2617 50.6148 24.5039 50.0445 24.7227C49.4742 24.9492 48.818 25.0625 48.0758 25.0625C46.3961 25.0625 45.5563 24.168 45.5563 22.3789V21.5703C45.5563 19.1875 45.5719 17.0664 45.6031 15.207C45.6422 13.3398 45.7203 11.6562 45.8375 10.1562L44.5602 9.94531ZM52.8102 17.1172C53.0914 16.0625 53.232 14.4648 53.232 12.3242C53.232 11.957 53.2125 11.6602 53.1734 11.4336C52.9938 11.207 52.7359 11.0938 52.4 11.0938C52.2906 11.1875 51.9156 11.8047 51.275 12.9453C50.6344 14.0781 50.1617 14.9492 49.857 15.5586V16.1211C50.2867 16.418 50.7828 16.6641 51.3453 16.8594C51.9078 17.0469 52.3375 17.1406 52.6344 17.1406C52.7047 17.1406 52.7633 17.1328 52.8102 17.1172ZM59.6495 13.0742C59.6495 11.6602 59.8761 10.4336 60.3292 9.39453C60.7823 8.35547 61.4777 7.55078 62.4152 6.98047C63.3527 6.40234 64.5284 6.11328 65.9425 6.11328C67.505 6.11328 68.7316 6.40625 69.6222 6.99219C70.5128 7.57031 71.1339 8.375 71.4855 9.40625C71.8448 10.4375 72.0245 11.6992 72.0245 13.1914C72.0245 14.543 71.7862 15.75 71.3097 16.8125C70.8409 17.8672 70.13 18.7031 69.1769 19.3203C68.2316 19.9297 67.0714 20.2344 65.6964 20.2344C63.5714 20.2344 62.0323 19.582 61.0792 18.2773C60.1261 16.9648 59.6495 15.2305 59.6495 13.0742ZM66.1769 16.8008C66.5753 16.8008 66.8175 16.7695 66.9034 16.707C67.0831 16.3945 67.2198 15.9531 67.3136 15.3828C67.4073 14.8125 67.4542 14.1953 67.4542 13.5312C67.4542 12.9219 67.4152 12.3516 67.337 11.8203C67.2589 11.2812 67.1495 10.8594 67.0089 10.5547C66.923 10.4531 66.7511 10.3789 66.4933 10.332C66.2355 10.2773 65.9542 10.25 65.6495 10.25C65.2511 10.25 64.9777 10.293 64.8292 10.3789C64.4386 11.0508 64.2433 11.9844 64.2433 13.1797C64.2433 13.7422 64.2862 14.3164 64.3722 14.9023C64.4581 15.4883 64.5675 16.0195 64.7003 16.4961C64.7941 16.5977 64.9855 16.6758 65.2745 16.7305C65.5636 16.7773 65.8644 16.8008 66.1769 16.8008ZM74.9498 15.9219C74.9498 14.6484 74.9655 13.6875 74.9967 13.0391C75.028 12.3828 75.11 11.4219 75.2428 10.1562L73.8834 9.98047C73.7194 9.47266 73.61 9.01953 73.5553 8.62109C73.5084 8.22266 73.485 7.70703 73.485 7.07422C73.61 6.96484 73.817 6.83594 74.1061 6.6875C74.403 6.53125 74.7545 6.39844 75.1608 6.28906C75.567 6.17188 75.9772 6.11328 76.3913 6.11328C77.3366 6.11328 78.0045 6.31641 78.3952 6.72266C78.7936 7.12891 78.9928 7.73828 78.9928 8.55078C78.9928 9.00391 78.9264 9.61719 78.7936 10.3906C78.5748 11.6328 78.4655 12.2852 78.4655 12.3477C78.4655 12.3867 78.4928 12.4258 78.5475 12.4648C78.6022 12.4961 78.6608 12.5117 78.7233 12.5117C78.7936 12.5117 78.8405 12.4844 78.8639 12.4297C79.1764 11.1875 79.4889 10.1484 79.8014 9.3125C80.1139 8.47656 80.5866 7.73438 81.2194 7.08594C81.8522 6.4375 82.6725 6.11328 83.6803 6.11328C84.9303 6.11328 85.8288 6.49609 86.3756 7.26172C86.9225 8.01953 87.1959 8.97656 87.1959 10.1328C87.1959 11.1641 87.0748 12.1602 86.8327 13.1211C86.5905 14.0742 86.2897 15.0703 85.9303 16.1094C85.9459 16.0703 85.8913 16.2227 85.7663 16.5664L85.7897 16.5898L87.5006 15.8867C88.11 16.4102 88.4655 17.1055 88.567 17.9727C88.567 18.0273 88.3913 18.25 88.0397 18.6406C87.6959 19.0312 87.2389 19.3945 86.6686 19.7305C86.0983 20.0664 85.442 20.2344 84.6998 20.2344C83.9577 20.2344 83.3522 20.0352 82.8834 19.6367C82.4147 19.2383 82.1803 18.5586 82.1803 17.5977C82.1803 16.832 82.2116 15.8086 82.2741 14.5273C82.3366 13.2461 82.3991 12.2148 82.4616 11.4336C82.2584 11.2148 82.0084 11.0977 81.7116 11.082C81.4381 11.4336 81.0358 12.1367 80.5045 13.1914C79.9733 14.2461 79.5983 15.0352 79.3795 15.5586C79.3639 15.668 79.3561 15.7734 79.3561 15.875C79.3561 16.2656 79.4147 16.793 79.5319 17.457C79.6491 18.1133 79.7936 18.7266 79.9655 19.2969C79.8248 19.5625 79.5358 19.7852 79.0983 19.9648C78.6608 20.1445 78.1217 20.2344 77.4811 20.2344C76.903 20.2344 76.4381 20.1875 76.0866 20.0938C75.7428 20 75.5006 19.9023 75.36 19.8008C75.2194 19.6914 75.1491 19.625 75.1491 19.6016C75.1413 19.5312 75.1217 19.3477 75.0905 19.0508C75.0592 18.7461 75.028 18.3242 74.9967 17.7852C74.9655 17.2383 74.9498 16.6172 74.9498 15.9219ZM96.5548 21.8633C97.0783 21.8633 97.5314 21.8047 97.9142 21.6875C98.0314 21.5703 98.1134 21.4336 98.1603 21.2773C98.2072 21.1289 98.2306 20.9883 98.2306 20.8555C98.2306 20.7148 98.2189 20.6094 98.1955 20.5391C98.172 20.4766 98.133 20.418 98.0783 20.3633C97.7502 20.3086 97.3634 20.2695 96.9181 20.2461C96.4806 20.2305 96.2189 20.2188 96.133 20.2109C95.047 20.1641 94.1642 20.0859 93.4845 19.9766C92.8048 19.8594 92.2228 19.6094 91.7384 19.2266C91.2541 18.8359 91.0119 18.25 91.0119 17.4688C91.0119 17.0469 91.1486 16.6523 91.422 16.2852C91.6955 15.9102 92.0509 15.582 92.4884 15.3008C91.5978 14.9336 90.883 14.3828 90.3439 13.6484C89.8127 12.9062 89.547 11.9492 89.547 10.7773C89.547 9.61328 89.8439 8.67969 90.4377 7.97656C91.0392 7.26562 91.7775 6.76562 92.6525 6.47656C93.5275 6.1875 94.4181 6.04297 95.3244 6.04297C95.8947 6.04297 96.4533 6.09766 97.0002 6.20703C97.547 6.31641 98.0548 6.47266 98.5236 6.67578L98.0197 3.69922C98.4962 3.41016 99.09 3.26562 99.8009 3.26562C100.317 3.26562 100.797 3.35156 101.242 3.52344C101.688 3.69531 102.027 3.94141 102.262 4.26172C102.277 4.33984 102.285 4.46484 102.285 4.63672C102.285 5.27734 102.168 5.99219 101.934 6.78125C101.707 7.5625 101.313 8.19141 100.75 8.66797C101.031 9.23047 101.172 9.83594 101.172 10.4844C101.172 11.4375 100.988 12.3164 100.621 13.1211C100.262 13.9258 99.6603 14.582 98.8166 15.0898C97.9728 15.5898 96.8752 15.8398 95.5236 15.8398C95.133 15.8398 94.7267 15.8164 94.3048 15.7695C94.2814 16.1602 94.3752 16.5508 94.5861 16.9414C95.6408 16.7383 96.4923 16.6328 97.1408 16.625L97.9377 16.6133C99.0158 16.6133 99.8322 16.6797 100.387 16.8125C100.996 16.9609 101.449 17.2969 101.746 17.8203C102.051 18.3438 102.203 18.9805 102.203 19.7305C102.203 20.9023 101.844 21.8867 101.125 22.6836C100.414 23.4883 99.4884 24.0859 98.3478 24.4766C97.215 24.8672 96.0119 25.0625 94.7384 25.0625C93.5587 25.0625 92.508 24.8633 91.5861 24.4648C90.6642 24.0664 90.0822 23.3359 89.84 22.2734C90.0978 21.375 90.59 20.6953 91.3166 20.2344C92.2931 20.8203 93.2267 21.2383 94.1173 21.4883C95.0158 21.7383 95.8283 21.8633 96.5548 21.8633ZM95.84 12.9453C96.4025 12.9453 96.7306 12.9102 96.8244 12.8398C97.0353 12.418 97.1408 11.9844 97.1408 11.5391C97.1408 11.0781 97.0353 10.6445 96.8244 10.2383C96.7228 10.1523 96.4962 10.0859 96.1447 10.0391C95.8009 9.99219 95.4259 9.96875 95.0197 9.96875C94.5119 9.96875 94.172 10 94.0002 10.0625C93.758 10.4922 93.6369 10.9258 93.6369 11.3633C93.6369 11.8086 93.7502 12.2305 93.9767 12.6289C94.1486 12.7383 94.4064 12.8203 94.7502 12.875C95.1017 12.9219 95.465 12.9453 95.84 12.9453ZM108.909 11.0469C108.909 9.27344 109.171 7.69531 109.695 6.3125C110.226 4.92188 111.054 3.82422 112.179 3.01953C113.304 2.21484 114.726 1.8125 116.445 1.8125C117.616 1.8125 118.855 1.96484 120.159 2.26953C120.581 2.51953 120.948 2.78125 121.261 3.05469C121.581 3.32031 121.886 3.64453 122.175 4.02734C122.175 4.58203 122.101 5.32031 121.952 6.24219C121.804 7.15625 121.616 8.01172 121.39 8.80859C121.171 9.59766 120.96 10.1094 120.757 10.3438C120.554 10.4453 120.382 10.5156 120.241 10.5547C120.101 10.5859 119.882 10.6016 119.585 10.6016C119.218 10.6016 118.874 10.5742 118.554 10.5195C118.234 10.4648 117.991 10.3906 117.827 10.2969L117.417 6.34766C116.863 6.19141 116.093 6.11328 115.109 6.11328C114.843 6.11328 114.648 6.11719 114.523 6.125C114.187 7.20312 113.999 8.65234 113.96 10.4727C113.952 10.6914 113.948 11.0234 113.948 11.4688C113.948 12.5156 114.003 13.3633 114.113 14.0117C114.214 14.6211 114.323 15.0781 114.441 15.3828C114.558 15.6875 114.761 15.9219 115.05 16.0859C115.347 16.25 115.788 16.332 116.374 16.332C117.163 16.332 117.89 16.2188 118.554 15.9922C119.226 15.7578 119.956 15.418 120.745 14.9727C121.042 15.293 121.269 15.5547 121.425 15.7578C121.589 15.9609 121.738 16.2109 121.87 16.5078C122.011 16.8047 122.105 17.1445 122.152 17.5273C122.027 17.7852 121.695 18.1289 121.155 18.5586C120.616 18.9883 119.909 19.375 119.034 19.7188C118.159 20.0625 117.179 20.2344 116.093 20.2344C113.554 20.2344 111.722 19.4414 110.597 17.8555C109.472 16.2695 108.909 14 108.909 11.0469ZM124.28 12.3828C124.28 8.75781 124.35 6.26562 124.491 4.90625L123.167 4.67188C122.979 3.95312 122.885 3.17969 122.885 2.35156C123.003 2.20312 123.221 2.01953 123.542 1.80078C123.862 1.58203 124.233 1.39062 124.655 1.22656C125.085 1.0625 125.51 0.980469 125.932 0.980469C126.893 0.980469 127.608 1.22656 128.077 1.71875C128.546 2.21094 128.78 2.96484 128.78 3.98047C128.78 4.42578 128.741 5.14453 128.663 6.13672C128.585 7.12109 128.471 8.17969 128.323 9.3125C128.175 10.4375 128.003 11.4414 127.807 12.3242C127.807 12.3711 127.835 12.4141 127.889 12.4531C127.944 12.4922 128.003 12.5117 128.065 12.5117C128.135 12.5117 128.182 12.4844 128.206 12.4297C128.518 11.1875 128.831 10.1484 129.143 9.3125C129.456 8.47656 129.928 7.73438 130.561 7.08594C131.194 6.4375 132.014 6.11328 133.022 6.11328C134.272 6.11328 135.171 6.49609 135.717 7.26172C136.264 8.01953 136.538 8.97656 136.538 10.1328C136.538 11.1641 136.417 12.1602 136.175 13.1211C135.932 14.0742 135.632 15.0703 135.272 16.1094C135.288 16.0703 135.233 16.2227 135.108 16.5664L135.132 16.5898L136.866 15.8633C137.475 16.3867 137.831 17.082 137.932 17.9492C137.932 18.0039 137.757 18.2305 137.405 18.6289C137.053 19.0195 136.589 19.3867 136.01 19.7305C135.44 20.0664 134.784 20.2344 134.042 20.2344C133.3 20.2344 132.694 20.0352 132.225 19.6367C131.757 19.2383 131.522 18.5586 131.522 17.5977C131.522 16.832 131.553 15.8086 131.616 14.5273C131.678 13.2461 131.741 12.2148 131.803 11.4336C131.6 11.2148 131.35 11.0977 131.053 11.082C130.78 11.4336 130.378 12.1367 129.846 13.1914C129.315 14.2461 128.94 15.0352 128.721 15.5586C128.706 15.668 128.698 15.7734 128.698 15.875C128.698 16.2656 128.757 16.793 128.874 17.457C128.991 18.1133 129.135 18.7266 129.307 19.2969C129.167 19.5625 128.878 19.7852 128.44 19.9648C128.003 20.1445 127.464 20.2344 126.823 20.2344C126.245 20.2344 125.78 20.1875 125.428 20.0938C125.085 20 124.842 19.9023 124.702 19.8008C124.561 19.6914 124.491 19.625 124.491 19.6016C124.483 19.5312 124.464 19.3477 124.432 19.0508C124.401 18.7461 124.37 18.3242 124.339 17.7852C124.307 17.2383 124.292 16.6172 124.292 15.9219L124.28 12.3828ZM142.803 12.2773C143.264 12.2773 143.772 12.3242 144.326 12.418C144.889 12.5117 145.405 12.625 145.873 12.7578V12.3945C145.873 12.1523 145.865 11.8828 145.85 11.5859C145.842 11.2891 145.826 11.0938 145.803 11C145.733 10.8672 145.53 10.7305 145.194 10.5898C144.865 10.4492 144.326 10.3789 143.576 10.3789C143.115 10.3789 142.639 10.4375 142.147 10.5547C141.662 10.6641 141.123 10.8125 140.53 11C140.209 10.4688 139.951 9.96484 139.756 9.48828C139.569 9.00391 139.475 8.51953 139.475 8.03516C139.475 7.88672 139.487 7.73828 139.51 7.58984C140.776 6.60547 142.412 6.11328 144.42 6.11328C145.53 6.11328 146.514 6.23828 147.373 6.48828C148.233 6.73828 148.94 7.22266 149.494 7.94141C150.049 8.66016 150.326 9.67969 150.326 11C150.326 12.2891 150.174 13.5391 149.869 14.75C149.572 15.9531 149.42 16.5664 149.412 16.5898L151.112 15.8633C151.338 16.1055 151.537 16.4023 151.709 16.7539C151.889 17.0977 152.002 17.4961 152.049 17.9492C151.94 18.1836 151.701 18.4844 151.334 18.8516C150.967 19.2109 150.518 19.5312 149.987 19.8125C149.455 20.0938 148.901 20.2344 148.322 20.2344C147.674 20.2344 147.182 20.043 146.846 19.6602C146.518 19.2773 146.354 18.7812 146.354 18.1719C146.354 17.8281 146.405 17.4805 146.506 17.1289L146.155 17.0234C145.936 18.2578 145.471 19.1016 144.76 19.5547C144.049 20.0078 143.264 20.2344 142.405 20.2344C141.842 20.2344 141.299 20.0781 140.776 19.7656C140.252 19.4453 139.826 18.9844 139.498 18.3828C139.17 17.7734 139.006 17.0625 139.006 16.25C139.006 14.9531 139.33 13.9688 139.979 13.2969C140.627 12.6172 141.569 12.2773 142.803 12.2773ZM144.139 16.7422C144.334 16.7031 144.565 16.5938 144.83 16.4141C145.104 16.2344 145.346 16.0195 145.557 15.7695C145.768 15.5195 145.893 15.2812 145.932 15.0547L145.862 14.7734C145.447 14.7188 145.006 14.6914 144.537 14.6914C144.139 14.6914 143.865 14.7227 143.717 14.7852C143.467 15.0664 143.342 15.3789 143.342 15.7227C143.342 15.9727 143.405 16.1992 143.53 16.4023C143.662 16.6055 143.865 16.7188 144.139 16.7422ZM153.814 13.5312C153.814 12.2578 153.834 11.0977 153.873 10.0508L152.595 9.82812C152.494 9.4375 152.424 9.09375 152.385 8.79688C152.345 8.5 152.326 8.18359 152.326 7.84766L152.349 7.61328C152.373 7.50391 152.385 7.41406 152.385 7.34375L154.084 6.96875C154.123 6.48438 154.213 5.9375 154.353 5.32812C154.494 4.71875 154.642 4.26953 154.799 3.98047C155.049 3.79297 155.349 3.65234 155.701 3.55859C156.053 3.46484 156.431 3.41797 156.838 3.41797C157.181 3.41797 157.513 3.45312 157.834 3.52344C158.162 3.58594 158.447 3.67188 158.689 3.78125C158.713 4.04688 158.724 4.35156 158.724 4.69531C158.724 5.25781 158.697 5.89453 158.642 6.60547L160.705 6.23047C160.994 6.73047 161.138 7.27344 161.138 7.85938C161.138 8.26562 161.088 8.63281 160.986 8.96094C160.892 9.28906 160.76 9.66016 160.588 10.0742C160.072 10.1602 159.365 10.2148 158.467 10.2383C158.357 11.5117 158.115 13.3828 157.74 15.8516L157.681 16.25L157.705 16.2734L160.459 15.418C161.029 15.8945 161.377 16.6289 161.502 17.6211C161.502 17.6758 161.248 17.9336 160.74 18.3945C160.24 18.8477 159.611 19.2695 158.853 19.6602C158.095 20.043 157.271 20.2344 156.381 20.2344C154.826 20.2344 153.998 19.2852 153.896 17.3867C153.842 16.4258 153.814 15.1406 153.814 13.5312Z" fill="white"/>
</svg>