<svg width="90" height="21" viewBox="0 0 90 21" fill="none" xmlns="http://www.w3.org/2000/svg">
<path d="M4.41703 14.9609C3.85453 12.6406 3.35844 10.6992 2.92875 9.13672C2.49906 7.56641 2.15531 6.58984 1.8975 6.20703L0.725625 6.125C0.499063 5.53125 0.338906 4.80078 0.245156 3.93359C0.377969 3.50391 0.627969 3.13281 0.995156 2.82031C1.36234 2.5 1.79203 2.25781 2.28422 2.09375C2.77641 1.92969 3.2725 1.84766 3.7725 1.84766C4.91313 1.84766 5.76469 2.37109 6.32719 3.41797C6.585 3.89453 6.80375 4.46875 6.98344 5.14062C7.16313 5.80469 7.33109 6.59375 7.48734 7.50781C7.74516 9.04688 7.92484 10.4297 8.02641 11.6562C8.12797 12.875 8.21 14.1719 8.2725 15.5469L8.31938 16.6016H8.49516C8.69047 16.1719 8.90531 15.2461 9.13969 13.8242C9.37406 12.4023 9.57719 10.8984 9.74906 9.3125C9.92094 7.71875 10.0147 6.53516 10.0303 5.76172L8.55375 5.53906C8.44438 5.125 8.37406 4.75391 8.34281 4.42578C8.31156 4.09766 8.29594 3.69922 8.29594 3.23047C8.46 3.02734 8.73344 2.81641 9.11625 2.59766C9.49906 2.37891 9.94438 2.19531 10.4522 2.04688C10.96 1.89844 11.4639 1.82422 11.9639 1.82422C12.6358 1.82422 13.2413 1.9375 13.7803 2.16406C14.3272 2.38281 14.7608 2.71094 15.0811 3.14844C15.4092 3.58594 15.5772 4.12109 15.585 4.75391V6.55859C15.9366 7.92578 16.2413 9.53125 16.4991 11.375C16.7647 13.2109 16.96 14.9492 17.085 16.5898H17.2139C17.4014 16.1523 17.6123 15.2227 17.8467 13.8008C18.0889 12.3711 18.2998 10.8672 18.4795 9.28906C18.6592 7.70312 18.753 6.52734 18.7608 5.76172L17.378 5.53906C17.2686 5.125 17.1983 4.75391 17.167 4.42578C17.1358 4.09766 17.1202 3.69922 17.1202 3.23047C17.2764 3.02734 17.5498 2.81641 17.9405 2.59766C18.3311 2.37891 18.7803 2.19531 19.2881 2.04688C19.8038 1.89844 20.3116 1.82422 20.8116 1.82422C21.835 1.82422 22.6006 2.08984 23.1084 2.62109C23.6163 3.15234 23.8702 3.96094 23.8702 5.04688C23.8702 6.07812 23.6983 7.40625 23.3545 9.03125C23.0108 10.6562 22.5811 12.1836 22.0655 13.6133C21.6202 14.8633 21.1827 15.9453 20.753 16.8594C20.3233 17.7656 19.792 18.6562 19.1592 19.5312C18.9014 19.7969 18.5616 19.9805 18.1397 20.082C17.7256 20.1836 17.2959 20.2344 16.8506 20.2344C15.3116 20.2344 14.1748 19.9375 13.4405 19.3438L13.7569 16.9414L12.9952 12.9922C12.8155 11.9531 12.6983 11.125 12.6436 10.5078L12.4913 10.4961L12.4561 11.9844C12.1983 13.5156 11.8819 14.9375 11.5069 16.25C11.1397 17.5547 10.7178 18.6484 10.2413 19.5312C10.0147 19.7891 9.70219 19.9688 9.30375 20.0703C8.90531 20.1797 8.49906 20.2344 8.085 20.2344C6.48344 20.2344 5.35453 19.9414 4.69828 19.3555L4.95609 17.1523L4.41703 14.9609ZM25.6705 3.18359C25.6705 2.49609 25.8931 1.9375 26.3384 1.50781C26.7916 1.07812 27.5103 0.863281 28.4947 0.863281C29.4791 0.863281 30.1939 1.07812 30.6392 1.50781C31.0923 1.9375 31.3189 2.49609 31.3189 3.18359C31.3189 3.57422 31.1822 3.93359 30.9087 4.26172C30.6431 4.58984 30.2916 4.85156 29.8541 5.04688C29.4166 5.23438 28.9634 5.32812 28.4947 5.32812C27.9869 5.32812 27.5142 5.21875 27.0767 5C26.647 4.77344 26.3033 4.49219 26.0455 4.15625C25.7955 3.82031 25.6705 3.49609 25.6705 3.18359ZM25.0962 9.88672C24.9947 9.50391 24.9244 9.15625 24.8853 8.84375C24.8462 8.52344 24.8267 8.19141 24.8267 7.84766L24.8384 7.51953C25.0025 7.30859 25.2564 7.09766 25.6002 6.88672C25.9517 6.66797 26.358 6.48438 26.8189 6.33594C27.2877 6.1875 27.772 6.11328 28.272 6.11328C29.3658 6.11328 30.1431 6.35938 30.6041 6.85156C31.065 7.34375 31.2955 8.10938 31.2955 9.14844C31.2955 9.77344 31.2056 10.5898 31.0259 11.5977C30.8541 12.6055 30.6431 13.5859 30.3931 14.5391C30.1509 15.4844 29.94 16.1602 29.7603 16.5664L29.7837 16.5898L31.5181 15.957C31.8306 16.2227 32.065 16.5156 32.2212 16.8359C32.3853 17.1562 32.4908 17.5273 32.5377 17.9492C32.5377 18.0039 32.3658 18.2305 32.022 18.6289C31.6783 19.0195 31.2212 19.3867 30.6509 19.7305C30.0884 20.0664 29.4361 20.2344 28.6939 20.2344C27.9439 20.2344 27.3345 20.0312 26.8658 19.625C26.4048 19.2188 26.1744 18.5234 26.1744 17.5391C26.1744 16.3906 26.2056 15.1719 26.2681 13.8828C26.3306 12.5938 26.4283 11.3438 26.5611 10.1328L25.0962 9.88672ZM34.877 15.9219C34.877 14.6484 34.8927 13.6875 34.9239 13.0391C34.9552 12.3828 35.0372 11.4219 35.17 10.1562L33.8106 9.98047C33.6466 9.47266 33.5372 9.01953 33.4825 8.62109C33.4356 8.22266 33.4122 7.70703 33.4122 7.07422C33.5372 6.96484 33.7442 6.83594 34.0333 6.6875C34.3302 6.53125 34.6817 6.39844 35.088 6.28906C35.4942 6.17188 35.9044 6.11328 36.3184 6.11328C37.2637 6.11328 37.9317 6.31641 38.3223 6.72266C38.7208 7.12891 38.92 7.73828 38.92 8.55078C38.92 9.00391 38.8536 9.61719 38.7208 10.3906C38.502 11.6328 38.3927 12.2852 38.3927 12.3477C38.3927 12.3867 38.42 12.4258 38.4747 12.4648C38.5294 12.4961 38.588 12.5117 38.6505 12.5117C38.7208 12.5117 38.7677 12.4844 38.7911 12.4297C39.1036 11.1875 39.4161 10.1484 39.7286 9.3125C40.0411 8.47656 40.5137 7.73438 41.1466 7.08594C41.7794 6.4375 42.5997 6.11328 43.6075 6.11328C44.8575 6.11328 45.7559 6.49609 46.3028 7.26172C46.8497 8.01953 47.1231 8.97656 47.1231 10.1328C47.1231 11.1641 47.002 12.1602 46.7598 13.1211C46.5177 14.0742 46.2169 15.0703 45.8575 16.1094C45.8731 16.0703 45.8184 16.2227 45.6934 16.5664L45.7169 16.5898L47.4278 15.8867C48.0372 16.4102 48.3927 17.1055 48.4942 17.9727C48.4942 18.0273 48.3184 18.25 47.9669 18.6406C47.6231 19.0312 47.1661 19.3945 46.5958 19.7305C46.0255 20.0664 45.3692 20.2344 44.627 20.2344C43.8848 20.2344 43.2794 20.0352 42.8106 19.6367C42.3419 19.2383 42.1075 18.5586 42.1075 17.5977C42.1075 16.832 42.1387 15.8086 42.2012 14.5273C42.2637 13.2461 42.3262 12.2148 42.3887 11.4336C42.1856 11.2148 41.9356 11.0977 41.6387 11.082C41.3653 11.4336 40.963 12.1367 40.4317 13.1914C39.9005 14.2461 39.5255 15.0352 39.3067 15.5586C39.2911 15.668 39.2833 15.7734 39.2833 15.875C39.2833 16.2656 39.3419 16.793 39.4591 17.457C39.5762 18.1133 39.7208 18.7266 39.8927 19.2969C39.752 19.5625 39.463 19.7852 39.0255 19.9648C38.588 20.1445 38.0489 20.2344 37.4083 20.2344C36.8302 20.2344 36.3653 20.1875 36.0137 20.0938C35.67 20 35.4278 19.9023 35.2872 19.8008C35.1466 19.6914 35.0762 19.625 35.0762 19.6016C35.0684 19.5312 35.0489 19.3477 35.0177 19.0508C34.9864 18.7461 34.9552 18.3242 34.9239 17.7852C34.8927 17.2383 34.877 16.6172 34.877 15.9219ZM50.7398 15.9219C50.7398 14.6484 50.7555 13.6875 50.7867 13.0391C50.818 12.3828 50.9 11.4219 51.0328 10.1562L49.6734 9.98047C49.5094 9.47266 49.4 9.01953 49.3453 8.62109C49.2984 8.22266 49.275 7.70703 49.275 7.07422C49.4 6.96484 49.607 6.83594 49.8961 6.6875C50.193 6.53125 50.5445 6.39844 50.9508 6.28906C51.357 6.17188 51.7672 6.11328 52.1813 6.11328C53.1266 6.11328 53.7945 6.31641 54.1852 6.72266C54.5836 7.12891 54.7828 7.73828 54.7828 8.55078C54.7828 9.00391 54.7164 9.61719 54.5836 10.3906C54.3648 11.6328 54.2555 12.2852 54.2555 12.3477C54.2555 12.3867 54.2828 12.4258 54.3375 12.4648C54.3922 12.4961 54.4508 12.5117 54.5133 12.5117C54.5836 12.5117 54.6305 12.4844 54.6539 12.4297C54.9664 11.1875 55.2789 10.1484 55.5914 9.3125C55.9039 8.47656 56.3766 7.73438 57.0094 7.08594C57.6422 6.4375 58.4625 6.11328 59.4703 6.11328C60.7203 6.11328 61.6188 6.49609 62.1656 7.26172C62.7125 8.01953 62.9859 8.97656 62.9859 10.1328C62.9859 11.1641 62.8648 12.1602 62.6227 13.1211C62.3805 14.0742 62.0797 15.0703 61.7203 16.1094C61.7359 16.0703 61.6813 16.2227 61.5563 16.5664L61.5797 16.5898L63.2906 15.8867C63.9 16.4102 64.2555 17.1055 64.357 17.9727C64.357 18.0273 64.1813 18.25 63.8297 18.6406C63.4859 19.0312 63.0289 19.3945 62.4586 19.7305C61.8883 20.0664 61.232 20.2344 60.4898 20.2344C59.7477 20.2344 59.1422 20.0352 58.6734 19.6367C58.2047 19.2383 57.9703 18.5586 57.9703 17.5977C57.9703 16.832 58.0016 15.8086 58.0641 14.5273C58.1266 13.2461 58.1891 12.2148 58.2516 11.4336C58.0484 11.2148 57.7984 11.0977 57.5016 11.082C57.2281 11.4336 56.8258 12.1367 56.2945 13.1914C55.7633 14.2461 55.3883 15.0352 55.1695 15.5586C55.1539 15.668 55.1461 15.7734 55.1461 15.875C55.1461 16.2656 55.2047 16.793 55.3219 17.457C55.4391 18.1133 55.5836 18.7266 55.7555 19.2969C55.6148 19.5625 55.3258 19.7852 54.8883 19.9648C54.4508 20.1445 53.9117 20.2344 53.2711 20.2344C52.693 20.2344 52.2281 20.1875 51.8766 20.0938C51.5328 20 51.2906 19.9023 51.15 19.8008C51.0094 19.6914 50.9391 19.625 50.9391 19.6016C50.9313 19.5312 50.9117 19.3477 50.8805 19.0508C50.8492 18.7461 50.818 18.3242 50.7867 17.7852C50.7555 17.2383 50.7398 16.6172 50.7398 15.9219ZM65.4777 13.1914C65.4777 11.8398 65.7042 10.6328 66.1573 9.57031C66.6105 8.50781 67.3097 7.66797 68.255 7.05078C69.2081 6.42578 70.3956 6.11328 71.8175 6.11328C72.5597 6.11328 73.3019 6.20312 74.0441 6.38281C74.7862 6.55469 75.4152 6.84375 75.9308 7.25C76.4073 7.63281 76.7511 8.14062 76.962 8.77344C77.1808 9.39844 77.2902 10.0938 77.2902 10.8594C77.2902 11.3672 77.2472 11.8867 77.1612 12.418C77.0675 12.5742 76.8839 12.7812 76.6105 13.0391C76.337 13.2891 76.0167 13.5352 75.6495 13.7773C75.2823 14.0195 74.9269 14.207 74.5831 14.3398C74.255 14.3633 73.9152 14.375 73.5636 14.375C72.9464 14.375 72.3214 14.3477 71.6886 14.293C71.0558 14.2383 70.5011 14.1758 70.0245 14.1055C70.087 14.7695 70.2902 15.3477 70.6339 15.8398C70.9777 16.332 71.5245 16.5781 72.2745 16.5781C72.3448 16.5781 72.4581 16.5703 72.6144 16.5547C73.0909 16.5078 73.6456 16.3828 74.2784 16.1797C74.9191 15.9688 75.5558 15.7266 76.1886 15.4531C76.4855 15.75 76.7042 16.0469 76.8448 16.3438C76.9855 16.6406 77.0831 17.0664 77.1378 17.6211C76.8956 17.9023 76.5011 18.2461 75.9542 18.6523C75.4152 19.0586 74.755 19.4258 73.9737 19.7539C73.1925 20.0742 72.3761 20.2344 71.5245 20.2344C70.2433 20.2344 69.1456 19.9258 68.2316 19.3086C67.3253 18.6836 66.6378 17.8398 66.1691 16.7773C65.7081 15.707 65.4777 14.5117 65.4777 13.1914ZM73.0245 10.4961C72.9152 10.3789 72.7316 10.2891 72.4737 10.2266C72.2159 10.1562 71.9464 10.1211 71.6652 10.1211C71.4386 10.1211 71.2081 10.1406 70.9737 10.1797C70.7472 10.2188 70.6105 10.2617 70.5636 10.3086C70.298 10.832 70.13 11.4258 70.0597 12.0898L73.1886 11.7852L73.0245 10.4961ZM80.2623 16.8594C80.2623 16.5234 80.2702 15.6992 80.2858 14.3867C80.3092 11.8086 80.3209 10.3984 80.3209 10.1562L79.2428 9.98047C79.0944 9.53516 78.9889 9.11719 78.9264 8.72656C78.8639 8.33594 78.8327 7.94141 78.8327 7.54297C78.8327 7.37891 78.8366 7.25391 78.8444 7.16797C78.9772 7.05078 79.1842 6.91016 79.4655 6.74609C79.7467 6.58203 80.0788 6.4375 80.4616 6.3125C80.8444 6.17969 81.235 6.11328 81.6334 6.11328C82.5631 6.11328 83.235 6.32031 83.6491 6.73438C84.0709 7.14844 84.2819 7.75391 84.2819 8.55078C84.2819 9.03516 84.2194 9.65625 84.0944 10.4141C83.9772 11.1641 83.8561 11.6992 83.7311 12.0195L84.153 12.0898L84.8561 9.44141C85.1686 8.24609 85.5592 7.39453 86.028 6.88672C86.4967 6.37109 87.0241 6.11328 87.61 6.11328C87.9928 6.11328 88.3717 6.17188 88.7467 6.28906C89.1295 6.40625 89.4225 6.55078 89.6256 6.72266C89.8444 7.20703 89.9538 7.85156 89.9538 8.65625C89.9538 9.21875 89.8991 9.77734 89.7897 10.332C89.6803 10.8789 89.5397 11.3203 89.3678 11.6562L86.9069 11.3281C86.4069 11.8594 85.8756 12.5977 85.3131 13.543C84.7506 14.4805 84.3014 15.3438 83.9655 16.1328L83.9538 16.7422L86.2272 16.2031C86.61 16.7891 86.8327 17.4844 86.8952 18.2891C86.8952 18.3359 86.7194 18.5273 86.3678 18.8633C86.0163 19.1992 85.5514 19.5117 84.9733 19.8008C84.403 20.082 83.7467 20.2227 83.0045 20.2227C82.2389 20.2227 81.5983 20.0195 81.0827 19.6133C80.5748 19.1992 80.3053 18.5039 80.2741 17.5273C80.2663 17.4102 80.2623 17.1875 80.2623 16.8594Z" fill="white"/>
</svg>
